<?xml version="1.0" encoding="UTF-8"?><svg id="a" xmlns="http://www.w3.org/2000/svg" viewBox="0 0 1415.81 955.36"><path d="M15.8,247.55c-7.81-.51-15.36-6.1-13.16-14.67,.66-8.38,.72-16.79,1.08-25.18,.84-23.56,1.48-47.12,2.64-70.67,1.43-23.06,2.21-46.15,2.85-69.25-.12-17.62,2.42-36.38-.43-53.49-2.11-3.02-.74-7.09,1.38-9.73C14.41-.11,22.2-.83,27.97,.77c4.91,1.17,9.12,4.97,9.28,10.24,1.2,11.45,.79,23,.72,34.5-.74,29.39-1.45,58.78-3.21,88.13-2.08,33.76-2.06,67.63-4.06,101.38,4.92,8.78-7.91,13.57-14.9,12.54Z"/><path d="M137.67,265.94c-15.9-.81-12.24-12.57-11.45-23.98,1.17-17.76,1.56-35.54,1.6-53.33,.24-48.79,7.49-97.68,3.52-146.45-.34-4.08-3.88-7.99-.16-11.66,6.38-6.61,19.94-6.82,25.72,.68,3.7,7.08,2.92,15.8,3.67,23.58,.86,34.73-2.07,69.44-3.63,104.12-1.46,23.75-.44,47.56-1.9,71.31-.43,7.74-.91,15.49-1.45,23.23,1.32,9.01-8.3,13.04-15.91,12.49Z"/><path d="M151.6,141.59c-35.45-5.58-71.84-3.48-107.52-1.45-5.97,.98-12.95,1.38-18.13-2.26-5.64-3.85-2.71-11.45,2.96-13.49,10.98-4.03,23.36-2.26,34.88-3.43,33.06-.14,67.66-4,99.81,4.77,11.69,7.66-2.7,17.88-12,15.86Z"/><path d="M235.6,241.97c-16.27-1.73-9.02-14.82-8.32-25.74,2.88-20.43,5.78-40.87,9.48-61.16,1.2-17.22,38.65-14.34,27.56,3-3.17,19.04-6.15,38.11-8.76,57.24-2.08,14.34-.53,28.32-19.96,26.66Z"/><path d="M243.83,104.14c-6.61-.35-10.78-5.09-12.68-11.07-6.06-10.31,9.63-15.9,17.67-13.62,5.73,.7,8.87,5.22,10.58,10.29,6.52,9.82-7.43,15.78-15.57,14.41Z"/><path d="M328.07,176.33c-13-.47-12.77-10.53-14.59-20.58-6.56-30.91,2.88-62.28,4.55-93.26-5.5-14.58,19.94-17.99,26.69-8.35,2.06,2.8,1.77,6.29,1.38,9.53-.93,15.54-3.78,30.92-5.18,46.42-.99,11.63-2.59,23.37-.95,35,1.79,14.76,11.56,31.72-11.91,31.23Z"/><path d="M317.31,240.57c-2.28-1.26-4.36-3.34-4.54-6.08-.18-2.74,1.61-5.07,3.7-6.62,2.79-2.07,6.34-3.06,9.77-3.28,3.43-.23,7.08,.3,10.12,1.98,1.21,.67,2.36,1.54,3.2,2.66,.81,1.08,1.11,2.12,1.33,3.42-.05,1.32-.21,2.39-.88,3.57-.69,1.21-1.71,2.23-2.83,3.05-2.79,2.07-6.34,3.06-9.78,3.28-.5,.03-1,.05-1.51,.05-2.97,0-6.01-.59-8.61-2.03Z"/><path d="M18.01,320.58c-7.94,.16-17.09-8.75-9.18-15.45,6.73-5.11,18.78-4.91,24.14,2.11,4.99,9.21-7.4,14.47-14.96,13.35Z"/><path d="M12.22,570.93c-6.94-.46-14.18-5.19-11.74-12.97,.89-8.76,2.07-17.47,2.77-26.25,1.48-22.79,3-45.58,3.73-68.41,.53-34.92,2.67-69.81,1.68-104.75-.33-13.76-1.22-27.5-1.47-41.27-.13-5.02-1.89-10.54,3.71-13.45,5.92-3.54,14.05-3.5,19.94,.09,7.84,4.3,3.56,25.44,5.26,34.11,1.76,30.17,.86,60.34-.02,90.51-.67,32.71-1.95,65.39-4.26,98.03-.68,11.23-2.21,22.37-3.35,33.55,.55,8.51-9.31,11.45-16.25,10.8Z"/><path d="M88.68,317.03c-13.21-1.73-13.53-8.22-9.64-19.28,2.12-11.51,5.1-18.46,18.4-17.41,13.55,1.64,13.5,8.75,9.57,19.82-1.83,11.31-5.72,17.89-18.33,16.86Z"/><path d="M219.19,564.25c-15.19-1.58-12.38-11.27-9.84-22.58,3.31-16.65,9.01-33.31,7.14-50.5,0-2.46-3.59-20.41-5.69-18.1-17.37,19.75-25.33,45.83-34,70.2-5.05,9.48-25.76,9.1-27.68-2.52,3.01-25.09,13.23-50.84,6.48-76.1-20.66,20.68-31.97,49.09-37.75,77.31-3.99,11.06-27.57,10.66-28.21-2.2,1.05-31.79,7.81-63.16,8.29-94.97-6.53-16.59,12.47-23.43,24.38-14.91,6.82,7.86,2.94,20.36,3.22,29.98,.13,.15-.61,3.18,.35,1.34,16.46-22.77,51.89-28.45,58.64,4.86,8-9.69,20.5-16.98,33.39-14.67,29.47,6.28,29.52,45.91,24.5,69.55-2.08,9.5-4.38,18.97-6.17,28.53-.06,10.59-6.64,15.76-17.07,14.79Z"/><path d="M342.18,553.91c-10.82-2.42-7.09-15.92-7.86-24.07-.04-11.54,.33-23.08,.77-34.61,1.76-30,4.94-59.9,9.43-89.61,3.51-25.86,9.38-51.7,8.77-77.91-.16-3.73-.43-7.5-1.06-11.18-.13-.75-.02-.39-.79-1-.91-.72-1.67-1.65-2.22-2.67-6.09-18.68,23.09-27.97,22.06,15,.48,29.48-6.18,58.5-10.04,87.61-4.82,34.45-8.39,69.12-8.85,103.92,5.15,4.2,2.37,11.21,1.93,16.78-.65,7.45-1.94,19.26-12.12,17.75Z"/><path d="M483.19,342.16c-9.22-1.44-6.95-14.01-13.98-17.97-26.01-8.54-54.56-4.87-81.58-7.34-15.06-.72-30.25-.97-45.2-2.91-11.93-4.4-5.25-20.86,6.62-17.3,24.52,2,49.12,2.51,73.69,3.64,20.7,2.13,47.9-1.84,63.18,14.97,5.95,8.04,14.36,27.43-2.72,26.92Z"/><path d="M467.19,448.27c-11.61-2.73-4.68-12.19-9.8-14.61-6.36-3.26-13.94-3.68-20.93-4.06-18.07-.94-36.16-1.39-54.25-1.96-5.66-.21-11.32-.43-16.97-.72-4.49,2.02-9.51,.39-14-1.05-10.29-3.85-5.63-19.74,5.13-17.47,23.91,1.53,47.87,1.73,71.8,2.82,16.57,1.09,40.9-.08,48.17,18.32,2.59,7.61,1.58,19.99-9.14,18.73Z"/><path d="M455.77,561.53c-36.94-4.21-74.39-1.16-111.21-5.16-23.08-6.46,1.49-37.18,10.98-16.75,28.82,1.47,57.77,.21,86.55,2.92,6.66,1.15,14.37-.62,20.32,2.99,7.04,5.3,2.07,17.18-6.63,15.99Z"/><path d="M526.26,531.63c-19.79-14.83-1.96-78.47,.87-101.28,6.05-38.4,22.27-77.24,14.73-116.39-24.37-9.42,19.58-47.94,20.04,16.3,.38,40.58-14.26,79.59-20,119.5-2.27,17.81-10.81,51.62-4.59,66.91,12.88-2,24.94-21.83,37.13-22.08,4.84,.75,8.27,5.42,7.53,10.27-1.38,6.62-8.9,9.2-13.43,13.47-11.62,8.96-27.17,22.56-42.27,13.3Z"/><path d="M614.47,551.66c-9-1.09-8.81-11.25-7.43-18.13,1.09-9.23,2.31-18.45,3.43-27.68,2.27-20.09,4.67-40.67,1.51-60.67,.61-7.23,10.1-10.7,15.21-5.53,8.41,12,2.88,44.4,2.15,59.45-.94,9.27-2.2,18.51-3.36,27.75,2.29,4.56,.29,9.72-.66,14.5-.79,5.46-4.76,11.05-10.86,10.3Z"/><path d="M626.43,376.06c-.79-4.84,2.59-9.54,7.43-10.34,2.34-.38,4.78,.19,6.7,1.57,2.02,1.45,3.08,3.48,3.63,5.85,.23,2.43-.12,4.69-1.57,6.71-1.39,1.93-3.51,3.25-5.86,3.63-.47,.08-.95,.12-1.42,.12-4.31,0-8.2-3.18-8.92-7.54Z"/><path d="M681.99,542.54c-29.96-9.63-3.18-71.24,13.68-84.68,5.55-5.06,13.6-9.16,21.12-6.36,7.9,2.2,15.87,11.45,7.94,18.42-4.18,3.74-9.51,1.65-13.46-1.13-1.45,.51-2.75,1.72-3.89,2.73-12.7,12.88-19.41,30.79-20.67,48.67,.15,2.57-.97,7.02,2.4,3.08,6.86-7.26,11.42-16.39,15.92-25.22,3.82-8.09,8.63-24.3,20.18-15.43,8.32,6.9-6.09,25.38-9.37,33.49-7.14,11.98-17.14,30.9-33.85,26.43Z"/><path d="M750.52,556.01c-33.71-3.7-30.56-45.63-32.14-70.98-.31-9.18-.62-18.37-.94-27.55-1.2-8.63-.06-22.54,12.19-18.89,8.83,3.55,4.66,14.52,5.92,21.86,.69,17.29,.84,34.63,2.46,51.86,1.14,8.6,1.5,21.7,11.09,25.09,15.28-.18,16.9,18.73,1.43,18.6Z"/><path d="M827,572.19c-12.95-.09-25.33-4.02-37.39-8.38-7.48-1.19-15.16-8.02-9.79-15.7,5.74-7.71,15.12-.82,22.19,.95,37.11,14.36,57.9-3.32,15.84-25.81-17.77-8.97-30.15-15.65-15.72-35.99,10.36-15.47,22.04-30.66,37.06-41.88,22.79-16.78,35.81,9.42,16.32,12.65-13.92,2.41-32.76,30.64-40.37,42.65-.65,.68,2.36,1.63,2.95,2.16,13.8,7.71,29.39,15.32,37.67,29.41,11.05,21.01-6.28,41.8-28.76,39.94Z"/><path d="M10.88,750.44c-9.85-.98-2.79-32.31-3.29-40.11,1.6-18.43,3.99-36.84,4.18-55.37-.3-1.62,.49-3.84-.31-5.14-.43-.46-.72-1.04-.82-1.66-.55-4.41,5.18-7.07,8.11-3.62,2.94,6.99,.63,15.65,.78,23.16-1.23,25.43-6.02,50.78-5.18,76.26,2.63,2.9,.45,6.76-3.48,6.48Z"/><path d="M75.13,750.32c-6.42-1.06-2.2-9.51-2.71-13.87,1.17-15.63,2.8-31.22,4.62-46.79,1.81-6.26,2.41-38.94,8.73-38.16,4.13-.62,5.42,3.4,4.15,6.71-4.17,23.3-6.52,46.99-8.65,70.59-1.62,5.45,1.72,22.25-6.15,21.53Z"/><path d="M121.22,663.37c-20.42-5.79-41.78-12.56-63.25-9.98-6.94,10.37-18.07-9.57,9.44-7.65,18.69,.32,36.99,4.92,54.76,10.42,5.5,.77,4.35,7.56-.95,7.21Z"/><path d="M179.01,747.17c-7.8-.35-29.29-5.5-29.89-14.58,.71-2.23,3.48-3.21,5.58-2.53,7.37,5.83,21.73,13.8,30.84,8.05,4.79-8.18,2.2-19.75-2.33-27.6-6.44-9.08-17.85-12.68-25.77-20.17-12.17-12.43,16.89-37.84,29.19-38.85,6.52-1.58,13.12,5.91,4.91,8.85-6.18,.13-1.66-4.44-10.62,.6-7.58,4.87-14.09,12.02-18.27,19.98-.74,7.55,11.62,10.84,16.4,15.29,18.33,8.64,27.71,50.31-.05,50.96Z"/><path d="M219.91,799.56c-7.82-2.08-6.6-20.31-7.49-27.12-.13-11.8,1.78-23.63,5.39-34.86,.56-8.99,1.01-18.05,1.58-27.05,.33-3.37-.61-7.77,2.25-10.23,2.64-1.99,6.88-.43,6.85,3.1,.14,.9-.14,1.83-.71,2.53-.14,2.95-.2,6.08-.42,9.01,5.87-12.57,25.14-40.29,36.92-18.3,2.67,13.36-.34,29.67-8.44,40.72-9.34,9.81-22.19,.96-25.75-9.68-7.29,15-4.01,32.43-5.33,48.63-1.29,5.61,3.37,24.13-4.86,23.27Zm31.48-103.6c-8.33,5.28-12.82,15.17-17.55,23.54,5.22,1.67,5.01,14.35,12.73,15.11,8.05,.21,16.61-41.69,4.82-38.65Z"/><path d="M290.99,745.05c-12.62-14.19,5.77-40.63,21.04-45.25,5.52-1.99,14.59,.15,13.74,7.42-2.82,8.95-12.99,13.15-20.89,16.78-1.87,2.58-5.1,2.69-8.04,1.91-10.81,27.66,27.5,12.07,40.27,8.93,3.33-1.89,10.37-1.18,7.83,4.04-10.59,5.46-44.59,15.6-53.96,6.15Zm23.79-38.7c-5.72,1.46-11.19,7.09-13.64,11.54,5.9-2.65,13.14-5.43,16.44-11.3-.55-.86-1.96-.3-2.8-.23Z"/><path d="M358.66,754.8c-18.61-11.71,.35-55.48,21.1-53.4,4.13,.76,14.52,6.78,8.28,10.98-4.28,2.45-6.75-3.15-10.37-4.1-12.18,.95-26.95,36.49-12.48,40.94,9.07-1.34,16.12-8.56,24.14-12.47,2.93-.99,6.68,1.99,4.61,4.98-2.55,2.61-6.12,4.11-9.13,6.17-7.71,4.52-17,11.29-26.17,6.89Z"/><path d="M407.1,745.06c-9.35-1.58-1.47-36.21,1.02-42.95,.97-3.04,5.72-3.7,7.54-1.11,1.52,3.77-2.04,7.83-2.17,11.77-1.52,7.06-2.3,14.3-2.36,21.52-.03,4.1,2.57,11.05-4.03,10.77Z"/><path d="M417.86,693.57c-3.88-.2-3.71-4.46-4.22-7.33-.68-4.38-1.35-8.77-1.93-13.17-.11-.75,.06-.36-.5-.82-2.22-1.95-.8-5.67,.11-7.99,1.69-2.6,6.46-2.55,7.54,.57,1.27,6.14,1.56,12.48,2.73,18.67,.78,3.95,2.44,10.36-3.73,10.08Z"/><path d="M448.02,742.4c-14.97-1.61-6.3-30.47,2.09-36.24,5.63-5.64,14-4.52,20.34-.73,1.65,.65,3.66,1.6,3.66,3.66-2.14,8.8-10.77-.98-15.86,.27-8.55,4.6-10.61,16.52-9.46,25.37,3.85,.59,12.34-15.05,16.87-14.14,7.18,1.27,1.65,7.32-1.27,10.12-4.71,4.56-9.17,11.5-16.36,11.7Z"/><path d="M472.74,750.18c-10-5.63-8.73-18.48-8.41-28.36,1.19-8.12-1.3-24.55,10.33-24.92,3.63,0,4.97,4.75,1.64,6.41-2.23,.39-2.17,2.69-2.52,4.57-.93,10.87-3.33,22.84,.59,33.29,1.56,3.58,8.31,3.78,7.48,8.31-1.45,4.04-6.53,3.02-9.1,.69Z"/><path d="M506.93,760.48c-25.13-5.57,.43-90.93,2-110.75,10.17-6.55,7.26,8.08,6.05,13.55-2,10.99-4.38,21.91-6.36,32.91-2.18,18.37-8.62,39.44-.76,56.97,5-3.69,7.65-11.41,11.19-16.84,1.28-4.37,9.3-3.69,8.11,1.34-5.32,8.08-8.94,22.13-20.23,22.82Z"/><path d="M533.53,753.89c-4.45-.29-3.45-5.04-3.29-8.16,.66-9.08,.26-18.46,2.81-27.26,2.17-7.24,13.91-4.3,7.56,2.68-1.61,7.58-1.61,15.4-2.07,23.11-.19,3.83,.59,10.04-5.01,9.63Z"/><path d="M542.21,696.36c-5.64-.35-3.69-10.49-6.21-13.41-5.07-1.15-2.2-7.54-2.52-11.18-.72-4.55,4.76-8.24,8-4.32,2.2,7.69,3.08,15.89,5.16,23.68,1.22,2.9-1.55,5.53-4.43,5.24Z"/><path d="M584.35,752.25c-15.39-1.61-20.74-19.89-28.01-31.21-1.1-5.01,7.08-6.29,8.33-1.58,4.56,6.37,12.75,28.34,22.08,25.16,.9-19.3-6.33-19.18-16.67-32.21-1.97-7.82,5.84-15.13,10.75-20.41,10.92-8.94,14.72,14.34,2.75,7.91-11.3,13.54-2.34,10.57,5.54,21.24,6.55,8.43,11.37,31.3-4.77,31.09Z"/><path d="M641.67,759.17c-23.27-2.76-8-75.5-7.08-92.71,.55-6.47,1.68-13.29,.68-19.68-.93-2.51-2.5-6.12,.06-8.15,15.44-8.01,5.64,37.27,5.49,44.36-1.85,13.78-3.38,27.64-3.47,41.56,.32,23.43,2.82,42.08,18.18,9.58,1.83-3.27,2.88-7.06,5.08-10.07,2.31-2.27,7.5-.98,6.99,2.71-5.97,11.71-10.78,30.5-25.92,32.4Z"/><path d="M662.14,695.8c-12.84-5.54-26.05-11.75-40.37-11.03-3.23-.19-6.26,.72-9.33,1.24-5.9-.62-3.62-7.4,1.31-7.52,12.14-1.95,24.75-.29,36.13,4.27,5.63,2.19,11.27,4.42,16.75,6.95,4.26,2.74-.69,8.02-4.48,6.09Z"/><path d="M720.13,755.48c-4.22-.25-3.59-4.68-3.35-7.72,.57-12.47,1.69-24.94,4.06-37.21-.37-7.22,9.09-8.66,8.67-1.86-2.27,11.1-3.62,22.38-4.2,33.69-.92,4.48,1.81,13.28-5.18,13.1Z"/><path d="M734.89,687.92c-5.1,.82-7.94-22.71-10.29-27.66-.2-3.33-2.79-2.27-3.36-5.12-.45-4.2-.26-10.54,5.74-8.97,3.48,1.29,3.78,5.55,4.67,8.63,2.24,7.99,4.39,16.01,6.59,24.01,1.47,3.82,2.56,9.3-3.34,9.11Z"/><path d="M784.4,764.3c-4.67-.35-3.38-5.62-3.64-8.89-.13-6.79-.31-13.58-.55-20.37-1.46-32.95-7.41-47.3-19.38-5.96-2.78,5.17,.5,15.64-6.2,17.6-1.96,.29-4.26-.73-4.61-2.86,1.43-15.63,4.99-31.29,4.46-47.19,.17-3.31,4.66-4.72,7.05-2.72,2.35,2.35,.74,6.3,1.08,9.29,4.12-8.67,16.38-9.85,20.41-.46,6.08,12.56,4.9,27.24,5.73,40.84-1.03,5.45,4.02,21.13-4.36,20.71Z"/><path d="M851.58,747.33c-12.35-1.37,13.45-71.22,15.99-81.42,2.82-8.73,5.67-17.46,8.21-26.28,.36-2.21,2.07-4,4.39-4,6.25-.02,3.86,8.01,1.86,11.25-1.37,4.57-2.81,9.12-4.29,13.67-5.28,16.36-10.74,32.69-15.25,49.27,6.78,1.91-.63,12.26-.89,16.94-3.24,6.15-1.39,19.56-10.02,20.56Z"/><path d="M895.74,741.4c-9.12-3.33-11.45-40.34-13.3-50.28,0-8.48-6.67-40.41-1.99-44.64,3.71-3.16,7.33,.66,9.01,4.01,2.38,2.27,1.18,6.05-2.09,6.5,1.96,21.55,3.74,43.24,8.14,64.45,.04,5.86,10.19,20.14,.23,19.95Z"/><path d="M907.46,712.77c-6.79-1.57-63.85,.6-41.06-14,2.43-1.08,6.16,.49,5.66,3.52-.39,.94,2.14,.44,2.82,.76,11.85,2.24,24.57,.86,36.1,3.63,2.99,2.51-.23,6.55-3.52,6.09Z"/><path d="M911.27,794.45c-5.17-.87-4.33-8.26-5.84-12.2-5.32-31.37,5.77-70.33,24.67-95.57,22.22-13.41,24.34,25.38,19.94,38.9-2.11,14.68-15.92,14.79-22.72,3.31-1.42,15.87-3.13,31.86-5.79,47.62-1.91,6.48-.31,19.24-10.26,17.94Zm8-68.49c-5.78,16.33-8.59,33.88-6.27,51.14,3.03-14.78,4.84-34.88,6.38-51.51-.01,0-.05,.12-.11,.37Zm17.94-35.16c-3.21,1.18-4.63,5.06-6.28,7.83,2.56,2.8,.26,3.86-.87,6.06-.19,8.63,1.29,20.87,9.7,25.43,4.72-8.71,6.95-33.36-2.55-39.32Z"/><path d="M956.37,802.16c-7.05-.35-3.74-23.56-4.15-29.12,.73-21.69,9.17-41.88,15.81-62.06,1.38-8.68,1-17.57,1.32-26.2,1.42-2.97,6.66-3.15,7.78,.16,.56,2.82,.39,5.76,.41,8.64,4.76-11.8,17.37-19.61,21.39-2.62,4.44,14.33-5.06,54.93-25.03,37.02-2.78,17.56-5.89,35.14-9.08,52.66-2.24,5.71-.47,21.57-8.43,21.51Zm32.91-112.86c-4.38,6.78-8.79,14.11-11.38,21.72-.16,4.95-.07,12.32,5.28,14.43,8.35-5.66,11.08-28.93,6.1-36.14Z"/><path d="M1031.45,708.69c-2.72,.02-5.28-2.99-3.52-5.5,5.06-4.35,12.9-3.51,19.2-4.27,6.24,.04,12.79,.5,18.77,2.26,3.33,2.02,.8,6.54-2.58,6.39-11.03-2.04-21.47-2.38-31.87,1.12Z"/><path d="M1087.17,754.11c-3.3-.15-5.99-4.49-2.77-6.72,1.14-31.71,6.36-63.18,6.75-94.93,.16-3.48,5.16-4.85,7.4-2.39,2.4,10.13-.57,21.64-.67,32.18-1.15,14.07-2.82,28.09-3.83,42.16-.52,7.06-.92,14.13-1.31,21.2,.33,3.85-.69,8.8-5.56,8.51Z"/><path d="M1110.95,740.52c-15.92-1.06-24.53-17.36-30.55-30.2-.28-5.07,7.67-5.47,8.57-.67,5.35,9,12.05,25.48,24.65,23.25,6.56-7.34,6.32-18.91,9.12-28.07,3.47-16.75,3.6-35.79-5.68-50.75-4.33-7.82-16.76-14.19-19.51-1.68-.13,5.76-9.45,7.37-8.73,.8,9.5-31.17,39.6-8.51,42.38,14.09,3.39,14.74,1.99,30.1-1.73,44.64-2.88,10.68-3.96,28.63-18.53,28.57Z"/><path d="M1188.65,742.94c-15.27,.46-34.55-4.2-36.37-22.22-3.13-1.69-3.03-5.86-.23-7.83,1.89-4.99,3.49-11.03,7.79-14.99,5.6-6.54,17.45-10.27,23.61-2.55,6.8,13.11-11.14,24.97-22.57,26.5,3.12,13.55,18.35,13.76,29.6,14.18,5.12,1.01,2.78,7.68-1.82,6.93Zm-16.11-44.78c-7.16,1.83-11.24,9.8-12.1,16.67,5.8-1.1,11.4-4.39,14.73-9.32,2.56-2.83,2.33-8.45-2.63-7.35Z"/><path d="M1210.96,734.09c-9.42,1.12-14.06-43.86-9.97-49.81,4.05-6.26,15.77,1.08,6.78,4.83-.37,12.21,1.51,24.65,4.96,36.34,0,.02,.01,.03,.02,.05,7.61-15.46,9.71-33.98,19.81-48.01,2.53-1.99,7.56-.18,6.49,3.46-3,4.62-5.13,9.75-6.87,15-4.77,9.36-8.91,39.13-21.23,38.14Z"/><path d="M11.46,895.07c-7.93-.16-6.42-9.08-7.13-14.66,.33-7.96-4.28-28.81,5.02-31.91,4.97-1.85,15.74,5.82,6.26,7.67-1.91,9.61-.62,19.56-.03,29.25,.28,4.17,2.54,10.32-4.11,9.65Z"/><path d="M11.7,821.74c-3.97-.09-6.4-3.09-7.03-6.78-1.98-4.02-.62-8.1,4.42-7.45,3.48,.01,11.56,5.28,6.6,8.46,2.01,3.49-.11,6.18-3.99,5.78Z"/><path d="M79.72,906.4c-8.09-.18-6.15-9.19-7.08-14.78-1.15-9.96-1.13-20.4-5.08-29.77-8.59,11.12-10.29,25.76-13.37,39.04-3.01,4.21-12.13,1.04-10.7-4.5,.36-13.1,1.76-26.21,.99-39.32-3.89-.87-4.8-4.37-4.27-7.89-1.39-7.13,7.7-8.85,11.49-3.94,3.56,3.97,3.38,9.85,3.84,14.86,3.76-7.14,13.65-9.22,19.46-3.31,6.33,7.32,6.48,17.9,7.73,27.06,.57,6.05,1.16,12.11,1.69,18.16,.97,3.05-1.99,4.73-4.7,4.39Z"/><path d="M186.48,899.1c-3.34-.21-6.86-2.45-6.18-6.2-.09-6.92,.16-13.83,.37-20.74,.89-23.46,1.42-46.94,1.91-70.4,1.35-5.07,10.03-2.72,11.22,1.5-.69,9.72-.57,20.53-.9,30.73-.33,14.97-1.02,29.93-1.42,44.91-.23,5.95-.19,11.96-.22,17.89-.5,2.02-3,2.35-4.78,2.31Z"/><path d="M229.18,811.67c-23.9-6.86-48.73-12.68-73.52-6.57-2.65,3.93-10.9,1.76-11.79-2.74,.62-6.71,27.72-6.54,33.84-7.21,18.14-.19,35.79,5.03,53.06,9.96,4.89,1.77,3.7,7.23-1.59,6.56Z"/><path d="M243.28,899.17c-9.87-.69-6.61-13.11-3.55-19.04,.91-5.04,.18-10.47,.16-15.64,.98-4.45-4.22-12.99,.88-15.1,10.18-2.6,10.04,9.41,10.06,16.16,8.93-8.82,21.89-11.37,33.99-11.78,3.52,.03,8.17,5.08,3.17,6.88-14.43,.95-27.93,5.88-35.5,19.06-4.65,5.55,1.37,19.58-9.21,19.46Z"/><path d="M313.88,901.38c-17,.43-15.72-15.79-10.02-27.12,4.23-12.69,20.95-21.83,31.94-11.49,5.35,5.43-5.38,7.27-8.32,3.44-9.25-1.6-14.08,13.1-16.05,20.35-1.68,9.5-.59,7.7,7.87,7.5,2.88,0,8.11,3,5.32,6.17-3.09,2.09-7.22,1.25-10.74,1.15Z"/><path d="M336.81,907.89c-14.01-3.14-10.86-30.6-11.38-41.82,.62-4.65-1.18-11.46,2.69-14.75,3.74-2.27,13.39,2.27,8.76,6.61-.72,13.06-1.54,26.58,1.63,39.39,1.02,4.44,6.94,10.69-1.7,10.58Z"/><path d="M361.8,904.28c-8.61-.26-5.77-9.87-6.28-15.68,.46-10.27-1.15-21.39,2.42-31.16,2.69-4.94,15.72-.32,9.98,4.57-2.09,11.13-1.26,22.71-1.36,34.02,.18,3.96,.91,8.91-4.75,8.25Z"/><path d="M369.7,844.27c-1.66-.19-3.3-.66-4.61-1.74-.03,0-.18-.15-.45-.41-4.53,.92-9.45-2.32-7.84-7.28,.51-3.99-.34-10.16,3.95-12.18,8.05-2.34,10.72,6.89,12.23,12.9,1.39,4.11,3.28,9.13-3.27,8.72Z"/><path d="M434.4,919.23c-8.05-.24-6.61-9.71-8-15.36-2.32-13.42-2.21-27.72-7.98-40.26-1.12-1.63-5.23,8.69-5.72,10.26-3.67,9.24-2.34,19.54-4.91,28.96-1.76,2.01-4.99,1.69-7.25,.75-6.68-3.17-2.65-12.19-2.23-17.81,2.17-9.37,1.58-19.05,1.54-28.59-2.49-11.51,9.7-11.68,12.55-2.22,4.98-1.53,11.49,.3,14.63,5.07,7.07,10.84,7.23,24.53,9.21,36.97,.68,5.54,1.51,11.07,2.51,16.56,1.37,3.52-.52,6.09-4.36,5.68Z"/><path d="M454.45,908.17c-3.54-.18-6.79-2.63-6.33-6.45-.42-6.91-.6-13.86-.26-20.78,.35-5.39,1.03-10.74,1.86-16.09,1.71-3.86,8.02-2.5,10.22,.28,.72,.85,.8,1.96,.52,3-1.11,7.39-1.87,14.84-1.81,22.31,.12,4.61,.12,9.22,.52,13.81,.84,2.9-2.33,4.17-4.72,3.92Z"/><path d="M465.72,849.16c-4.21-.12-6.77-3.32-6.62-7.41-.86-5.72-1.74-11.46-2.41-17.2-5.19-1.54-3.13-8.42-.75-11.57,3.15-2.32,8.35-.87,10.12,2.54,2.07,8.18,1.97,16.91,3.67,25.23,.75,4.13,2.13,8.9-4.02,8.43Z"/><path d="M523.96,906.59c-7.64-.16-6.77-8.75-7.16-14.27-.66-12.02-.1-24.73-4.81-36.02-6.72,9.57-7.02,21.42-8.77,32.57-.75,3.21,.15,8.24-3.59,9.66-7.14,1.68-9.78-3.33-8.75-9.73,.4-7.72,2.38-15.24,4.42-22.64,1.53-8.11,1.67-16.61,3.51-24.57,3.89-3.79,12.64,.04,10.15,5.81,18.12-.53,17.18,23.94,18.48,36.79,.26,6.21,.09,12.49,1.22,18.61,.9,2.83-2.41,4.04-4.69,3.8Z"/><path d="M545.94,893.33c-14.52-6.14-5.32-26.36-.84-36.86,3.56-9.63,14.05-16.65,20.71-5.54,.44-3.57,.89-6.98,5.47-6.42,8.98,.42,5.35,8.94,4.15,14.63-4.15,12.69-12.6,37.5-29.5,34.19Zm12.81-38.69c-5.7,8.93-9.77,19.65-9.4,30.34,8.26-8.61,13.42-20.08,15.96-31.65-.93,.79-4.21,1.7-6.17,.78-.13,.18-.26,.35-.39,.53Z"/><path d="M565.63,955.3c-21.02-1.72-36.23-21.22-45.75-38.26,.04-1.28,1.11-2.12,2.23-2.49,7.73-2.34,10.5,6.93,14.44,11.61,6.81,9.24,15.61,20.44,27.73,21.86,7.56-5.47,5.09-18.76,6.66-27.19,.33-25.01,2.63-62.87-11.55-83.98-1.41-2.18,.76-4.37,3.02-4.4,13.77,.15,15.39,25.19,17.79,35.51,2.57,20.06,2.72,40.44,1.27,60.59-.92,10.43-1.28,27.94-15.85,26.75Z"/><path d="M592.84,928.85c-15.7-.42-.14-43.33,8.47-48.09,4.8-6.12,18.33,.29,8.5,5.83-8.35,8.81-11.87,21.62-12.36,33.53-.17,4.14,1.69,9.29-4.62,8.74Z"/><path d="M676.65,908.98c-12.99-.99-23.18-10.63-32.52-18.83-2.12-2.75-7.69-4.83-6.86-8.79,2.5-3.54,8.21-1.69,10.59,1.15,6.2,5.04,19.61,19.87,27.26,18.55,3.76-13.1,.68-29.72-8.03-40.32-1.92-1.19-4.79-1.11-5.96-3.52-1.95-4.01,3.85-4.12,5.87-6.12,13.8-11.19,13.05-44.57-11.62-36.71-.75,.22-.94,.42-.91,1.2-7.65,8.74-21.66-8.68,3.76-9.48,15.74-1.18,31.27,10.87,28.57,27.6-1.4,8.56-3.54,18.71-11.66,23.35,10.33,7.85,22.17,51.97,1.5,51.92Z"/><path d="M751.38,896.78c-9.27-.23-16.26-8.84-15.46-17.91,.09-.93-1.49-1.36-1.62-2.44,.54-5.91,5.31-11.41,8.6-16.28,4-4.71,10.43-7.14,16.52-5.86,3.58,.64,11.72,.68,9.86,6.3,6.45,11.14-3.36,36.83-17.91,36.19Zm6.49-34.26c-9.15,3.54-14.79,19.02-8.13,26.87,7.2-3.89,13.02-19.69,9.63-27.2-.44-.13-1.12,.23-1.5,.33Z"/><path d="M830.73,899.61c-7.64-.88-10.07-10.68-11.59-17.02-5.46,17.38-25.83,19.34-27.8-.88-1.76-12.63-1.3-37.91,17.95-30.47,6.83,3.39,1.57,8.05-4,6.23-5.01,8.68-4.2,20.32-1.97,29.83,6.62-5.83,8.45-18.34,11.59-27.11,.95-6.24,8.77-6.07,11.93-1.62,2.31,3.71,1.28,8.53,2.02,12.7,.66,7.39,.61,15.2,4.74,21.67,3.04,3.54,2.28,6.95-2.88,6.68Z"/><path d="M878.7,899.21c-8.26-.28-10.23-9.2-12.69-15.53-6.68-18.79-3.39-39.09-1.03-58.38,2.21-7.98,1.93-34.6,10.41-36.33,4.35-1.63,13.81,4.71,6.14,7.25-5.43,26.54-11.7,55.73-6.3,82.68,1.01,3.79,2.42,7.47,3.95,11.08,.44,1.11,3.27,.08,4.47,1.15,7.46,3.26,.04,8.54-4.94,8.09Z"/><path d="M891.6,848.3c-8.76-1.86-17.64-3.07-26.55-4.02-4.9-1.57-23.53,.81-20.99-7.42,3.27-3.06,8.42-.56,12.4-.62,11.1,1.21,22.26,2.24,33.2,4.56,5.95,.09,10.63,7.41,1.94,7.5Z"/><path d="M943.6,900.53c-10.05,.05-13.22-10.73-10.13-18.86-3.29-2.16-3.06-6.84-3.97-10.3-3.18-13.18,14.33-17.1,23.89-13.38,3.58,2.11,7.89,.54,11.54,2.44,3.78,1.68,3.17,6.25-1.16,6.25,3.92,12.54-5.72,33.47-20.17,33.85Zm9.61-31.5c-5.96,5.87-10.36,14.74-9.68,23.23,6.51-5.53,11.03-15.02,10.14-23.62-.16,.12-.31,.25-.46,.39Zm-11.18-3.31c-.24,.12-.43,.37-.61,.57-.3,.33-.56,.68-.77,1.07,.2-.36,1.7-1.81,1.39-1.64Z"/><path d="M1010.64,909.86c-8.34-.23-5.84-9.29-6.4-14.97-.62-17.76-.32-35.51,.26-53.26,.93-15.65,1.25-31.41,3.54-46.93,.44-7.67,11.46-7.48,13.74-1.09,.26,1.47-.9,2.56-2.2,2.97-2.7,5.72-1.64,14.34-2.66,21.03-1.42,21.54-2.3,43.13-1.98,64.72,.05,7.88,.36,15.75,.54,23.62,.61,2.85-2.4,4.19-4.83,3.91Z"/><path d="M1031.92,858.16c-13.16-2.29-26.25-5.53-39.66-6.03-4.73-.51-10.84,2.4-14.04-2.54-2.68-11.43,44.35,.21,51.16,1.01,6.02-.2,11.65,7.32,2.53,7.57Z"/><path d="M1096.11,892.77c-12.71-1.07-5.95-16.77-6.28-25,1.61-15.53,3.65-31.01,5.6-46.5,.95-8.14,1.93-16.3,2.26-24.5-.2-1.61,.64-3.14,2.27-3.55,3.25-1.03,8.73,.57,8.73,4.58-1.64,29.94-7.94,59.52-9.23,89.48,3.45,2.58,.08,6.13-3.36,5.49Z"/><path d="M1079.31,856.25c-16.55-8.55,6.41-50.31,14.88-60.38,12.37-9.64,20.49,.89,23.09,13.02-.6,3.66-5.88,3.17-8.36,1.78-3.51-1.8-3.47-7.03-5.38-9.72-8.1,10.39-20.82,35.6-18.98,48.67,6.14,8.61,24.77-1.56,33.75-1.95,4.48-.54,9.55-2.77,13.68-.02,2.11,1.12,2.96,4.32,.34,5.39-17.32,1.78-36.43,12.96-53.03,3.22Z"/><path d="M1182.67,904.56c-11.71-.56-19.22-43.75-26.46-53.47-3.66-5.77,5.36-7.06,8.59-3.82,3.52,4.14,4.89,9.79,6.99,14.73,3.97,11.01,7.48,22.23,12.55,32.8,1.97,4.06,6.3,9.94-1.67,9.76Z"/><path d="M1162.19,955.26c-4.72-.08-9.03-3.57-7.12-8.56,1.19-6.72,2.92-13.36,4.83-19.91,7.44-24.49,16.3-48.82,27.94-71.65,6.93-19.01,28.01-2.5,13.57-1.34-16.01,27.91-26.5,59.29-34.46,90.41,2.86-.17,7.87,1.83,6.72,5.41-2.91,2.88-7.26,5.57-11.48,5.64Z"/><path d="M1230.8,901.16c-16.16-3.81-12.91-20.31-8.2-32.08-.68-1.51-.3-3.45,1.54-4,3.19-8.18,7.62-17.06,15.91-21.03,6.16-2.69,15.53-1.18,17.51,6.13,1.06,13.01-14.04,18.89-24.05,21.36-1.89,6.79-9.78,24,3.11,23.15,9.63,.32,29.23-16.59,34.67-6.47,.81,4.74-9.37,5.79-12.55,8.03-8.75,3.63-18.38,7.62-27.94,4.9Zm14.64-49.59c-3.19,2.6-5.64,6.03-7.54,9.65,4.15-2.11,7.98-5.78,8.84-10.52h0c-.08,0-1.18,.78-1.29,.87Z"/><path d="M1319.1,901.65c-6.64-.83-10.47-8.14-12.77-13.74,0-.02,0-.03-.02-.05-5,7.25-16.16,10.42-23.48,4.82-9.85-11.69-2.29-30.34,3.99-42.26,3.54-6.74,13.07-9.87,19.42-5.14,.59,.59,1.11-1.45,1.89-1.66,4.91-2.75,11.27,1.58,10.42,7.2-.05,7.33-2.2,14.45-4.11,21.38,.24,6.66,1.07,13.69,4.41,19.57,2.65,3.89,9.77,9.32,.25,9.88Zm-18.77-50.83c-8.52,8.92-13.09,25.28-9.94,37.27,7.22-2.8,9.56-11.18,12.58-17.59,1.29-5.12,.4-10.81,1.48-16.1-1.35-1.04-2.65-3.09-4.11-3.57Z"/><path d="M1343.53,895.91c-8.5-.36-6.74-9.82-7.18-15.79-.11-12.7-1.49-25.56-.09-38.2,1.14-6.29,14.59-1.58,10.61,3.84-.48,7.96-.02,16.04,.08,24.01,4.47-11.99,14.07-23.24,26.49-27.06,3.03-.29,8.93,2.74,6.03,6.18-27.91,12.37-22.63,47.22-35.95,47.01Z"/><path d="M1402.95,901.66c-7.77-.37-32.77-9.82-35.51-16.8,2.4-6.32,10.14-.65,13.86,1.48,4.86,2.18,19.52,11.83,23.29,6.05,2.1-10.46-5.56-19.21-11.39-26.92-2.78-5.7,2.03-11.32,3.7-16.67,1.59-3.77,2.76-9.33,8.12-8.05,4.32,.2,7.7,5.51,3.72,8.47-1.74,4.15-3.55,8.34-5.21,12.54-1.22,4.48,4.64,7.07,6.25,10.85,6.97,9.96,11.33,30.13-6.83,29.05Z"/></svg>